# AST/ASF file generated using VICON BodyLanguage
# -----------------------------------------------
:version 1.10
:name VICON
:units
  mass 1.0
  length 0.45
  angle deg
:documentation
   .ast/.asf automatically generated from VICON data using
   VICON BodyBuilder and BodyLanguage model FoxedUp or BRILLIANT.MOD
:root
   order TX TY TZ RX RY RZ
   axis XYZ
   position 0 0 0  
   orientation 0 0 0 
:bonedata
  begin
     id 1 
     name lhipjoint
     direction 0.734343 -0.627749 0.258209 
     length 2.5437 
     axis 0 0 0  XYZ
  end
  begin
     id 2 
     name lfemur
     direction 0.34202 -0.939693 0  
     length 6.7391  
     axis 0 0 20  XYZ
    dof rx ry rz
    limits (-160.0 20.0)
           (-70.0 70.0)
           (-60.0 70.0)
  end
  begin
     id 3 
     name ltibia
     direction 0.34202 -0.939693 0   
     length 7.21536   
     axis 0 0 20   XYZ
    dof rx
    limits (-10.0 170.0)
  end
  begin
     id 4 
     name lfoot
     direction 0.0489572 -0.134509 0.989702   
     length 1.61313   
     axis -90 7.62852e-016 20   XYZ
    dof rx rz
    limits (-45.0 90.0)
           (-70.0 20.0)
  end
  begin
     id 5 
     name ltoes
     direction 1.53451e-011 -4.21692e-011 1   
     length 0.823104   
     axis -90 7.62852e-016 20   XYZ
    dof rx
    limits (-90.0 20.0)
  end
  begin
     id 6 
     name rhipjoint
     direction -0.746398 -0.615468 0.253157   
     length 2.59446  
     axis 0 0 0  XYZ 
  end
  begin
     id 7 
     name rfemur
     direction -0.34202 -0.939693 0   
     length 6.7075   
     axis 0 0 -20   XYZ
    dof rx ry rz
    limits (-160.0 20.0)
           (-70.0 70.0)
           (-70.0 60.0)
  end
  begin
     id 8 
     name rtibia
     direction -0.34202 -0.939693 0   
     length 7.27262   
     axis 0 0 -20   XYZ
    dof rx
    limits (-10.0 170.0)
 end
 begin
     id 9 
     name rfoot
     direction -0.0455203 -0.125066 0.991104   
     length 1.91095  
     axis -90 -7.62852e-016 -20   XYZ
    dof rx rz
    limits (-45.0 90.0)
           (-20.0 70.0)
  end
  begin
     id 10 
     name rtoes
     direction -1.53601e-011 -4.21913e-011 1   
     length 0.969037   
     axis -90 -7.62852e-016 -20   XYZ
    dof rx
    limits (-90.0 20.0)
  end
  begin
     id 11 
     name lowerback
     direction 0.0181546 0.999122 -0.0377542   
     length 1.99916   
     axis 0 0 0   XYZ
    dof rx ry rz
    limits (-20.0 45.0)
           (-30.0 30.0)
           (-30.0 30.0)
  end
  begin
     id 12 
     name upperback
     direction 0.0203486 0.99589 0.0882534   
     length 1.951   
     axis 0 0 0   XYZ
    dof rx ry rz
    limits (-20.0 45.0)
           (-30.0 30.0)
           (-30.0 30.0)
  end
  begin
     id 13 
     name thorax
     direction 0.0131685 0.994241 0.106355   
     length 1.97461   
     axis 0 0 0   XYZ
    dof rx ry rz
    limits (-20.0 45.0)
           (-30.0 30.0)
           (-30.0 30.0)
  end
  begin
     id 14 
     name lowerneck
     direction -0.0281395 0.999325 0.023617   
     length 1.7959   
     axis 0 0 0   XYZ
    dof rx ry rz
    limits (-20.0 45.0)
           (-30.0 30.0)
           (-30.0 30.0)
  end
  begin
     id 15 
     name upperneck
     direction 0.0288721 0.991984 -0.123019   
     length 1.79917   
     axis 0 0 0   XYZ
    dof rx ry rz
    limits (-20.0 45.0)
           (-30.0 30.0)
           (-30.0 30.0)
  end
  begin
     id 16
     name head
     direction 0.0133797 0.998944 -0.0439492  
     length 1.80902  
     axis 0 0 0   XYZ
    dof rx ry rz
    limits (-20.0 45.0)
           (-30.0 30.0)
           (-30.0 30.0)
  end
  begin
     id 17 
     name lclavicle
     direction 0.919195 0.377107 0.113449  
     length 3.17815  
     axis 0 0 0   XYZ
    dof ry rz
    limits (-20.0 10.0)
           (0.0 20.0)
  end
  begin
     id 18 
     name lhumerus
     direction 1 -4.48959e-011 2.13129e-027   
     length 4.84137   
     axis 180 -30 -90   XYZ
    dof rx ry rz
    limits (-60.0 90.0)
           (-90.0 90.0)
           (-90.0 90.0)
  end
  begin
     id 19
     name lradius
     direction 1 -4.48957e-011 -6.30627e-028   
     length 3.2452   
     axis 180 -30 -90   XYZ
    dof rx
    limits (-10.0 170.0)
  end
  begin
     id 20
     name lwrist
     direction 1 -4.4901e-011 9.13299e-027   
     length 1.6226   
     axis -6.84618e-015 90 90   XYZ
    dof ry
    limits (-180.0 0.0)
 end
  begin
     id 21 
     name lhand
     direction 1 -4.48816e-011 1.82293e-026   
     length 0.521221   
     axis -1.16502e-014 90 90   XYZ
    dof rx rz
    limits (-90.0 90.0)
           (-45.0 45.0)
  end
  begin
     id 22 
     name lfingers
     direction 1 -4.49108e-011 3.65687e-026   
     length 0.420221   
     axis -2.33008e-014 90 90   XYZ
    dof rx
    limits (0.0 90.0)
  end
  begin
     id 23
     name lthumb
     direction 0.707107 -6.34943e-011 0.707107   
     length 0.603356   
     axis -90 45 5.69224e-014   XYZ
    dof rx rz
    limits (-45.0 45.0)
           (-45.0 45.0)
  end
  begin
     id 24 
     name rclavicle
     direction -0.90847 0.38596 0.160368   
     length 3.12973  
     axis 0 0 0   XYZ 
    dof ry rz
    limits (-10.0 20.0)
           (-20.0 0.0)
  end
  begin
     id 25 
     name rhumerus
     direction -1 -4.48974e-011 4.47268e-028  
     length 4.72284   
     axis 180 30 90   XYZ
    dof rx ry rz
    limits (-90.0 60.0)
           (-90.0 90.0)
           (-90.0 90.0)
  end
  begin
     id 26 
     name rradius
     direction -1 -4.48969e-011 3.43203e-027   
     length 3.23459   
     axis 180 30 90   XYZ
    dof rx
    limits (-10.0 170.0)
  end
  begin
     id 27 
     name rwrist
     direction -1 -4.48969e-011 9.12911e-027   
     length 1.6173   
     axis -6.84618e-015 -90 -90   XYZ
    dof ry
    limits (-180.0 0.0)
  end
  begin
     id 28
     name rhand
     direction -1 -4.49194e-011 1.83006e-026   
     length 0.307416   
     axis -1.16502e-014 -90 -90   XYZ
    dof rx rz
    limits (-90.0 90.0)
           (-45.0 45.0)
  end
  begin
     id 29
     name rfingers
     direction -1 -4.48423e-011 3.63103e-026   
     length 0.247847   
     axis -2.33008e-014 -90 -90   XYZ
    dof rx
    limits (0.0 90.0)
  end
  begin
     id 30
     name rthumb
     direction -0.707107 -6.34802e-011 0.707107   
     length 0.35586   
     axis -90 -45 -5.69224e-014   XYZ
    dof rx rz
    limits (-45.0 45.0)
           (-45.0 45.0)
  end
:hierarchy
  begin
    root lhipjoint rhipjoint lowerback
    lhipjoint lfemur
    lfemur ltibia
    ltibia lfoot
    lfoot ltoes
    rhipjoint rfemur
    rfemur rtibia
    rtibia rfoot
    rfoot rtoes
    lowerback upperback
    upperback thorax
    thorax lowerneck lclavicle rclavicle
    lowerneck upperneck
    upperneck head
    lclavicle lhumerus
    lhumerus lradius
    lradius lwrist
    lwrist lhand lthumb
    lhand lfingers
    rclavicle rhumerus
    rhumerus rradius
    rradius rwrist
    rwrist rhand rthumb
    rhand rfingers
  end

#!OML:ASF H:\Terrain\Patient Classification 1\Animal1\Tuesday\Animal1.ASF
:FULLY-SPECIFIED
:DEGREES
520
root 8.56208 16.7476 -3.34459 6.75031 -2.44183 1.93476
lowerback -0.693464 -1.12557 -1.3134
upperback 5.08515 -1.45989 0.031167
thorax 5.6842 -0.787233 0.684811
lowerneck -10.5323 -0.508408 -8.27355
upperneck 5.59341 -0.135278 7.63573
head 3.38766 0.115768 3.67583
rclavicle 3.42904e-015 -8.44835e-015
rhumerus 0.388166 -47.8313 -33.0293
rradius 64.6505
rwrist -48.3568
rhand -22.4396 32.3899
rfingers 7.12502
rthumb 3.98427 2.44739
lclavicle 3.42904e-015 -8.44835e-015
lhumerus -9.47914 40.4067 31.8154
lradius 77.4777
lwrist 7.72032
lhand -8.5421 54.0833
lfingers 7.12502
lthumb 17.3872 83.3256
rfemur -19.5126 11.3059 18.5678
rtibia 26.4008
rfoot -12.6691 -30.5357
rtoes 21.5364
lfemur -13.6656 -8.41949 -17.532
ltibia 15.6109
lfoot -9.29396 20.2209
ltoes 0.927055
521
root 8.56044 16.7462 -3.34524 6.70671 -2.4452 1.87889
lowerback -0.642777 -1.12156 -1.26596
upperback 5.08821 -1.45796 0.051148
thorax 5.65752 -0.784533 0.680136
lowerneck -10.5026 -0.507727 -8.33243
upperneck 5.56243 -0.128324 7.6523
head 3.37295 0.11824 3.69062
rclavicle 4.77083e-015 -3.97569e-015
rhumerus 0.280101 -47.8173 -33.0274
rradius 64.7764
rwrist -48.3737
rhand -22.4269 32.6448
rfingers 7.12502
rthumb 3.99658 2.70255
lclavicle 4.77083e-015 -3.97569e-015
lhumerus -9.56133 40.277 31.7504
lradius 77.5212
lwrist 7.85247
lhand -8.66373 54.169
lfingers 7.12502
lthumb 17.2701 83.4216
rfemur -19.4533 11.2475 18.658
rtibia 26.3973
rfoot -12.7473 -30.4646
rtoes 21.788
lfemur -13.6225 -8.47263 -17.4744
ltibia 15.5927
lfoot -9.14657 20.3554
ltoes -0.0571329
522
root 8.55996 16.7421 -3.3463 6.72423 -2.40316 1.84619
lowerback -0.642002 -1.13745 -1.23667
upperback 5.07075 -1.48102 0.0654988
thorax 5.63874 -0.794802 0.677575
lowerneck -10.4344 -0.474789 -8.33039
upperneck 5.51883 -0.0911417 7.69506
head 3.3457 0.137593 3.70499
rclavicle -3.57812e-015 6.95746e-016
rhumerus 0.254387 -47.8008 -33.0497
rradius 64.8319
rwrist -48.2891
rhand -22.4664 32.7685
rfingers 7.12502
rthumb 3.95841 2.8255
lclavicle -3.57812e-015 6.95746e-016
lhumerus -9.53114 40.249 31.7877
lradius 77.4995
lwrist 7.83838
lhand -8.80499 54.2891
lfingers 7.12502
lthumb 17.1342 83.5535
rfemur -19.4278 11.2691 18.701
rtibia 26.363
rfoot -12.9671 -30.5212
rtoes 22.4725
lfemur -13.7001 -8.47195 -17.4389
ltibia 15.6389
lfoot -8.71139 20.5035
ltoes -2.14736
523
root 8.5603 16.7399 -3.34558 6.77935 -2.3952 1.86694
lowerback -0.719463 -1.14007 -1.23523
upperback 5.05824 -1.48306 0.0543893
thorax 5.66963 -0.795464 0.663644
lowerneck -10.2484 -0.466893 -8.38488
upperneck 5.34003 -0.0874884 7.79643
head 3.2614 0.139997 3.74313
rclavicle -2.26615e-014 -5.26779e-015
rhumerus 0.260893 -47.7635 -33.0303
rradius 64.7768
rwrist -48.2122
rhand -22.2865 32.768
rfingers 7.12502
rthumb 4.13212 2.8283
lclavicle -2.26615e-014 -5.26779e-015
lhumerus -9.4533 40.2241 31.8507
lradius 77.4627
lwrist 7.84398
lhand -9.15681 54.4987
lfingers 7.12502
lthumb 16.7955 83.7923
rfemur -19.4529 11.3574 18.661
rtibia 26.2955
rfoot -12.7617 -30.6913
rtoes 22.0004
lfemur -13.8398 -8.47184 -17.4494
ltibia 15.791
lfoot -8.75617 20.5084
ltoes -2.36231
524
root 8.56098 16.7387 -3.34544 6.8158 -2.41793 1.74033
lowerback -0.771689 -1.11804 -1.0763
upperback 5.05608 -1.46036 0.0817579
thorax 5.69304 -0.777584 0.603379
lowerneck -10.0561 -0.493033 -8.47188
upperneck 5.13993 -0.123353 7.88145
head 3.17303 0.121185 3.77915
rclavicle -5.81445e-015 1.33186e-014
rhumerus 0.256084 -47.7457 -33.0001
rradius 64.7169
rwrist -48.1845
rhand -22.7049 33.0986
rfingers 7.12502
rthumb 3.7281 3.15142
lclavicle -5.81445e-015 1.33186e-014
lhumerus -9.44635 40.1558 31.8778
lradius 77.5013
lwrist 7.89717
lhand -9.52022 54.8174
lfingers 7.12502
lthumb 16.4456 84.1403
rfemur -19.458 11.344 18.8011
rtibia 26.2356
rfoot -12.4662 -30.6973
rtoes 21.1789
lfemur -13.9465 -8.43926 -17.3089
ltibia 15.939
lfoot -8.72555 20.5087
ltoes -2.56973
525
root 8.56202 16.7361 -3.34647 6.81662 -2.40542 1.63346
lowerback -0.764214 -1.10493 -0.944555
upperback 5.06383 -1.44939 0.112201
thorax 5.69388 -0.766849 0.561957
lowerneck -10.0952 -0.480171 -8.39533
upperneck 5.15684 -0.108085 7.80138
head 3.18303 0.127429 3.74286
rclavicle -3.00165e-014 -4.67144e-015
rhumerus 0.218705 -47.7815 -32.9768
rradius 64.746
rwrist -48.2151
rhand -22.7461 33.2251
rfingers 7.12502
rthumb 3.68831 3.27726
lclavicle -3.00165e-014 -4.67144e-015
lhumerus -9.39417 40.1351 31.9708
lradius 77.5478
lwrist 7.80977
lhand -9.47087 54.9823
lfingers 7.12502
lthumb 16.4931 84.3013
rfemur -19.4175 11.2971 18.9208
rtibia 26.2201
rfoot -12.8723 -30.514
rtoes 21.2563
lfemur -13.9782 -8.38788 -17.21
ltibia 15.9839
lfoot -8.31432 20.5565
ltoes -4.28161
526
root 8.56185 16.7348 -3.34652 6.74117 -2.38986 1.71618
lowerback -0.69343 -1.10382 -1.03518
upperback 5.08833 -1.44441 0.0975248
thorax 5.68117 -0.768329 0.59887
lowerneck -10.2168 -0.441034 -8.28169
upperneck 5.26916 -0.0592144 7.70522
head 3.23242 0.151622 3.69861
rclavicle -9.98893e-015 -5.96354e-016
rhumerus 0.152233 -47.7208 -32.8975
rradius 64.7875
rwrist -48.3515
rhand -22.2623 33.175
rfingers 7.12502
rthumb 4.15547 3.23582
lclavicle -9.98893e-015 -5.96354e-016
lhumerus -9.34472 40.1235 32.0438
lradius 77.5399
lwrist 7.70437
lhand -9.47823 55.0071
lfingers 7.12502
lthumb 16.486 84.3267
rfemur -19.3364 11.2421 18.8461
rtibia 26.2452
rfoot -13.1961 -30.3869
rtoes 21.0599
lfemur -13.8745 -8.41248 -17.3191
ltibia 15.9424
lfoot -8.07414 20.6148
ltoes -5.54033
527
root 8.56039 16.7382 -3.34658 6.69802 -2.41724 1.7828
lowerback -0.652697 -1.09668 -1.12505
upperback 5.10219 -1.4314 0.0861533
thorax 5.67436 -0.765849 0.638746
lowerneck -10.1994 -0.41782 -8.28901
upperneck 5.22365 -0.0264981 7.70596
head 3.2132 0.167519 3.70137
rclavicle -1.10325e-014 5.1684e-015
rhumerus 0.166118 -47.634 -32.8458
rradius 64.7634
rwrist -48.4498
rhand -22.1539 33.2758
rfingers 7.12502
rthumb 4.26018 3.33864
lclavicle -1.10325e-014 5.1684e-015
lhumerus -9.33353 40.0939 32.0381
lradius 77.4903
lwrist 7.69408
lhand -9.57918 55.0344
lfingers 7.12502
lthumb 16.3889 84.362
rfemur -19.3565 11.1876 18.7899
rtibia 26.306
rfoot -13.0015 -30.3942
rtoes 21.1886
lfemur -13.7606 -8.46262 -17.3829
ltibia 15.8121
lfoot -8.2036 20.6359
ltoes -4.88485
528
root 8.56042 16.7407 -3.34683 6.71839 -2.41942 1.79542
lowerback -0.652581 -1.09197 -1.11976
upperback 5.09466 -1.42504 0.080363
thorax 5.6659 -0.762217 0.630248
lowerneck -10.0784 -0.426174 -8.35186
upperneck 5.06507 -0.0338109 7.73472
head 3.14641 0.162098 3.71821
rclavicle 7.95139e-015 1.78906e-015
rhumerus 0.252584 -47.7065 -32.8782
rradius 64.6689
rwrist -48.4074
rhand -22.4575 33.4393
rfingers 7.12502
rthumb 3.96701 3.49648
lclavicle 7.95139e-015 1.78906e-015
lhumerus -9.32707 40.0192 32.0201
lradius 77.4558
lwrist 7.71414
lhand -9.55112 54.9748
lfingers 7.12502
lthumb 16.4159 84.3001
rfemur -19.4356 11.1794 18.773
rtibia 26.3984
rfoot -12.9418 -30.4271
rtoes 21.5505
lfemur -13.6731 -8.50263 -17.3749
ltibia 15.5784
lfoot -8.42934 20.5517
ltoes -3.4881
529
root 8.56183 16.7391 -3.34566 6.7303 -2.39795 1.87069
lowerback -0.650899 -1.1013 -1.15965
upperback 5.08237 -1.43484 0.0550401
thorax 5.65259 -0.768144 0.625954
lowerneck -10.1162 -0.43654 -8.28118
upperneck 5.15344 -0.0486147 7.6094
head 3.18018 0.151021 3.66779
rclavicle -3.926e-015 5.96354e-016
rhumerus 0.32291 -47.7768 -32.9399
rradius 64.6063
rwrist -48.3465
rhand -22.6958 33.5982
rfingers 7.12502
rthumb 3.73688 3.65121
lclavicle -3.926e-015 5.96354e-016
lhumerus -9.34961 39.944 31.9877
lradius 77.4127
lwrist 7.73727
lhand -9.46132 54.91
lfingers 7.12502
lthumb 16.5023 84.2282
rfemur -19.4633 11.1256 18.6992
rtibia 26.467
rfoot -12.6395 -30.5303
rtoes 20.5522
lfemur -13.5793 -8.51781 -17.4621
ltibia 15.3802
lfoot -8.26826 20.5135
ltoes -4.11612
